<svg width="266" height="107" viewBox="0 0 266 107" fill="none" xmlns="http://www.w3.org/2000/svg">
<path d="M250.466 58.8096V49.889C250.466 47.5473 250.891 44.9938 251.107 42.6558H250.682C249.405 44.9975 248.336 46.9117 247.059 49.4652L241.303 58.6126V58.8245L250.466 58.8096ZM250.466 76.045V65.6376H232.136V59.6905L249.613 32.6387H259.845V58.5977H265.174V65.619H259.845V76.0264L250.466 76.045Z" fill="#282D3C"/>
<path d="M202.298 76.0449V70.0978L207.626 64.567C214.447 57.3338 220.2 51.5874 220.2 45.2055C220.2 41.8007 217.854 39.2584 213.379 39.2584C210.561 39.3999 207.803 40.1239 205.28 41.3844L203.575 34.7869C207.302 32.9998 211.378 32.0555 215.512 32.0215C227.233 32.0215 230.86 38.4035 230.86 44.5736C230.86 52.6579 224.679 59.2555 218.498 65.0167L215.3 67.9903V68.2021H231.713V75.8627H202.298V76.0449Z" fill="#282D3C"/>
<path fill-rule="evenodd" clip-rule="evenodd" d="M25.5279 98.282C40.3362 104.398 56.2617 107.357 72.2827 106.968C84.8978 106.93 97.4735 105.56 109.8 102.88C126.512 99.3899 142.571 93.2991 157.389 84.8304C169.068 78.4815 179.044 69.4196 186.476 58.4104C188.909 54.5445 190.633 50.2763 191.566 45.8063C192.401 41.6573 192.274 37.3724 191.193 33.2802C188.494 23.434 180.247 15.1564 167.364 9.34314C152.544 3.23548 136.611 0.27956 120.583 0.664095C107.994 0.6995 95.4457 2.07007 83.1476 4.75272C66.3984 8.30389 50.3054 14.4372 35.447 22.9323C23.7731 29.2852 13.8056 38.3543 6.3896 49.3708C3.98041 53.2115 2.27812 57.451 1.363 61.8895C0.535644 66.0142 0.662996 70.2731 1.73534 74.3412C4.45342 84.1948 12.6821 92.4724 25.5279 98.282ZM89.7303 57.6081V51.6159H94.5799C98.3631 51.6159 100.75 49.6354 100.75 46.5886V46.5378C100.75 43.7194 98.4901 42.0182 94.7069 42.0182C90.949 42.0182 88.4862 43.7448 88.2576 46.7409V46.8679H81.1229L81.1483 46.5886C81.4783 39.8854 86.785 35.6452 94.91 35.6452C102.68 35.6452 108.088 39.6315 108.088 45.5983V45.6491C108.088 49.7116 105.244 53.0632 101.181 53.9264V54.3835C106.031 54.8659 109.383 58.1667 109.383 63.0925V63.1432C109.383 69.6179 103.086 74.1628 94.7069 74.1628C86.3026 74.1628 80.5643 69.5925 80.3104 62.9909L80.285 62.8132H87.6737L87.699 62.9401C87.9276 65.987 90.6698 67.7897 94.8084 67.7897C98.8455 67.7897 101.562 65.7585 101.562 62.61V62.5593C101.562 59.5124 99.0233 57.6081 94.6561 57.6081H89.7303ZM41.1905 73.2233L53.9112 36.5846H62.9249L75.671 73.2233H67.5968L64.88 64.3366H51.9562L49.2394 73.2233H41.1905ZM58.2023 43.8971L53.7081 58.5983H63.128L58.6593 43.8971H58.2023ZM116.053 54.9167C116.053 66.7995 122.629 74.1628 133.243 74.1628C142.079 74.1628 148.35 68.9323 149.137 61.2643L149.163 60.985H141.698L141.647 61.1882C140.835 65.0983 137.661 67.6628 133.268 67.6628C127.479 67.6628 123.899 62.7878 123.899 54.9167V54.8659C123.899 46.9948 127.479 42.1452 133.243 42.1452C137.61 42.1452 140.885 44.9382 141.672 49.0514V49.2292H149.137V48.9245C148.426 41.1804 141.926 35.6452 133.243 35.6452C122.604 35.6452 116.053 42.9831 116.053 54.8659V54.9167Z" fill="#0875D3"/>
</svg>
